<?xml version="1.0" encoding="utf-8"?>
<!-- Generator: Adobe Illustrator 23.1.1, SVG Export Plug-In . SVG Version: 6.00 Build 0)  -->
<svg version="1.1" id="Capa_1" xmlns="http://www.w3.org/2000/svg" xmlns:xlink="http://www.w3.org/1999/xlink" x="0px" y="0px"
	 viewBox="0 0 512 512" style="enable-background:new 0 0 512 512;" xml:space="preserve">
<style type="text/css">
	.st0{fill:#00AAFF;}
</style>
<title>email</title>
<path class="st0" d="M511.9,195.7c-0.1-0.6-0.2-1.2-0.4-1.7c-0.1-0.5-0.3-1-0.5-1.5c-0.2-0.5-0.5-0.9-0.9-1.3
	c-0.3-0.5-0.7-0.9-1.1-1.3c-0.1-0.1-0.2-0.3-0.3-0.4l-82.1-63.7V59.7c0-14.1-11.5-25.6-25.6-25.6c0,0,0,0,0,0h-92.4l-37-28.7
	c-9.1-7.1-22-7.1-31.1,0l-37,28.7h-92.5c-14.1,0-25.6,11.5-25.6,25.6v66.1l-82,63.7c-0.2,0.1-0.2,0.3-0.3,0.4
	c-0.4,0.4-0.8,0.8-1.1,1.3c-0.3,0.4-0.6,0.8-0.9,1.3c-0.2,0.5-0.4,1-0.5,1.5c-0.2,0.6-0.3,1.1-0.3,1.7c0,0.2-0.1,0.3-0.1,0.5v290.2
	c0,5.4,1.8,10.7,5,15.1c0,0.1,0.1,0.2,0.1,0.2c0.1,0.1,0.2,0.1,0.3,0.2c4.8,6.3,12.3,10.1,20.2,10.1h460.8c8,0,15.4-3.8,20.2-10.1
	c0.1-0.1,0.2-0.1,0.2-0.2s0.1-0.2,0.1-0.2c3.2-4.4,5-9.6,5-15.1V196.2C512,196.1,511.9,195.9,511.9,195.7z M250.9,18.8
	c3-2.4,7.2-2.4,10.2,0l19.7,15.3h-49.5L250.9,18.8z M27.7,494.9l223.1-173.3c3-2.4,7.2-2.4,10.2,0l223.2,173.3H27.7z M494.9,481.6
	L271.5,308.1c-9.1-7.1-22-7.1-31.1,0L17,481.6V209.2l139.9,108.6c3.8,2.8,9.2,1.9,11.9-1.9c2.6-3.6,2-8.7-1.5-11.6L25.3,194l60-46.6
	v65.9c0,4.7,3.8,8.5,8.5,8.5c4.7,0,8.5-3.8,8.5-8.5c0,0,0,0,0,0V59.7c0-4.7,3.8-8.5,8.5-8.5c0,0,0,0,0,0H401c4.7,0,8.5,3.8,8.5,8.5
	v153.6c-0.2,4.7,3.5,8.7,8.2,8.8s8.7-3.5,8.8-8.2c0-0.2,0-0.4,0-0.6v-65.9l60,46.6L344.4,304.5c-3.8,2.8-4.6,8.1-1.8,11.9
	s8.1,4.6,11.9,1.8c0.1-0.1,0.2-0.2,0.3-0.3l140.1-108.8V481.6z"/>
<path class="st0" d="M358.4,204.8v-34.1c0-56.6-45.8-102.4-102.4-102.4c-56.6,0-102.4,45.8-102.4,102.4S199.4,273,255.9,273
	c0,0,0,0,0.1,0c4.7,0.5,8.9-3,9.3-7.7s-3-8.9-7.7-9.3c-0.5-0.1-1.1-0.1-1.7,0c-47.1,0-85.3-38.2-85.3-85.3s38.2-85.3,85.3-85.3
	c47.1,0,85.3,38.2,85.3,85.3v34.1c0,9.4-7.7,17.1-17.1,17.1c-9.4,0-17-7.6-17.1-17.1v-34.2c0-4.7-3.8-8.5-8.5-8.5
	c-4.7,0-8.5,3.8-8.5,8.5c0,18.9-15.3,34.1-34.1,34.1s-34.1-15.3-34.1-34.1s15.3-34.1,34.1-34.1c0,0,0,0,0,0c4.7,0.2,8.7-3.5,8.8-8.2
	c0.2-4.7-3.5-8.7-8.2-8.8c-0.2,0-0.4,0-0.6,0c-28.3-0.1-51.2,22.8-51.3,51.1s22.8,51.2,51.1,51.3c12.9,0,25.2-4.8,34.7-13.5
	c1.2,18.7,17.4,32.9,36.1,31.7C345.1,238.9,359.2,223.2,358.4,204.8L358.4,204.8z"/>
</svg>
