<svg id="Layer_1" data-name="Layer 1" xmlns="http://www.w3.org/2000/svg" viewBox="0 0 512 512"><defs><style>.cls-1{fill:#fff;}</style></defs><title>github</title><path class="cls-1" d="M386,53a10,10,0,1,1-10-10A10,10,0,0,1,386,53Z"/><path class="cls-1" d="M256,106c-93.74,0-170,76.26-170,170,0,94.64,76.88,170,170,170,93.32,0,170-75.49,170-170C426,182.26,349.74,106,256,106ZM225.21,422.82A31.48,31.48,0,0,0,226,416V376.16c0-14.58,5.06-16.84,10.88-25.72A10,10,0,0,0,230,335.07c-39.67-5.92-55.24-26.37-61.32-42.48-8.09-21.46-3.81-48.22,10.42-65.09,2.16-2.55,4.1-7.12,2.55-11.69-3-9.17-2.57-23.81-.68-29.48,8.62,1.26,16.67,6.15,25.84,11.71,5.31,3.23,9.09,6.21,15.51,4.48A136.06,136.06,0,0,1,256,197.71a136.28,136.28,0,0,1,33.71,4.81c6.38,1.73,10.28-1.32,15.49-4.48,9.17-5.56,17.22-10.45,25.84-11.71,1.89,5.66,2.36,20.3-.65,29.4-1.58,4.65.36,9.22,2.52,11.77,14.23,16.86,18.52,43.63,10.42,65.09-6.08,16.11-21.65,36.56-61.31,42.48a10,10,0,0,0-6.9,15.37c5.81,8.86,10.91,11.12,10.88,25.74v39.87a31.65,31.65,0,0,0,.79,6.77,150.65,150.65,0,0,1-61.58,0Zm80.9-5.4A11.17,11.17,0,0,1,306,416V376.2c0-11.48-2.5-18.95-5.63-24.54,30.35-8.21,52-26.31,61.67-52,10.24-27.15,5.59-59.6-11.45-82.06,3.11-13.67,3-35.25-4.43-45.07a15.3,15.3,0,0,0-13.11-6.45c-15.64.72-27.69,8.53-40.82,16.44a155.21,155.21,0,0,0-36.11-4.8h-.24a155.14,155.14,0,0,0-36.11,4.8c-13-7.85-25.11-15.71-40.82-16.44a15.31,15.31,0,0,0-13.11,6.45c-7.43,9.8-7.54,31.34-4.43,45.06-17,22.47-21.69,54.92-11.45,82.07,9.69,25.7,31.32,43.8,61.67,52a44.2,44.2,0,0,0-5.32,17.82c-12.36,4.32-22.38,1.47-29.17-10-7.95-13.37-21.42-24.16-36.86-22.83A10,10,0,0,0,142,356.59c7.15-.62,14.2,6.83,17.94,13.11,10.69,18,28,24.44,46.06,20.58v25.66a11.68,11.68,0,0,1-.11,1.47c-59.2-21-99.89-78-99.89-141.41,0-82.71,67.29-150,150-150s150,67.29,150,150C406,339.39,365.31,396.41,306.11,417.42Z"/><path class="cls-1" d="M462,0H50A50.06,50.06,0,0,0,0,50V462a50.06,50.06,0,0,0,50,50H462a50.06,50.06,0,0,0,50-50V50A50.06,50.06,0,0,0,462,0Zm30,462a30,30,0,0,1-30,30H50a30,30,0,0,1-30-30V50A30,30,0,0,1,50,20H462a30,30,0,0,1,30,30Z"/><path class="cls-1" d="M136,63H336a10,10,0,0,0,0-20H136a10,10,0,0,0,0,20Z"/></svg>