<?xml version="1.0" encoding="utf-8"?>
<!-- Generator: Adobe Illustrator 23.1.1, SVG Export Plug-In . SVG Version: 6.00 Build 0)  -->
<svg version="1.1" id="Layer_1" xmlns="http://www.w3.org/2000/svg" xmlns:xlink="http://www.w3.org/1999/xlink" x="0px" y="0px"
	 viewBox="0 0 512 512" style="enable-background:new 0 0 512 512;" xml:space="preserve">
<style type="text/css">
	.st0{fill:#00AAFF;}
</style>
<title>github</title>
<path class="st0" d="M386,53c0,5.5-4.5,10-10,10s-10-4.5-10-10s4.5-10,10-10S386,47.5,386,53z"/>
<path class="st0" d="M256,106c-93.7,0-170,76.3-170,170c0,94.6,76.9,170,170,170c93.3,0,170-75.5,170-170
	C426,182.3,349.7,106,256,106z M225.2,422.8c0.5-2.2,0.8-4.5,0.8-6.8v-39.8c0-14.6,5.1-16.8,10.9-25.7c3-4.6,1.7-10.8-2.9-13.8
	c-1.2-0.8-2.6-1.3-4-1.5c-39.7-5.9-55.2-26.4-61.3-42.5c-8.1-21.5-3.8-48.2,10.4-65.1c2.2-2.6,4.1-7.1,2.6-11.7
	c-3-9.2-2.6-23.8-0.7-29.5c8.6,1.3,16.7,6.1,25.8,11.7c5.3,3.2,9.1,6.2,15.5,4.5c11-3,22.3-4.6,33.7-4.8c11.4,0.2,22.7,1.8,33.7,4.8
	c6.4,1.7,10.3-1.3,15.5-4.5c9.2-5.6,17.2-10.4,25.8-11.7c1.9,5.7,2.4,20.3-0.6,29.4c-1.6,4.6,0.4,9.2,2.5,11.8
	c14.2,16.9,18.5,43.6,10.4,65.1c-6.1,16.1-21.6,36.6-61.3,42.5c-5.5,0.8-9.2,5.9-8.4,11.4c0.2,1.4,0.7,2.8,1.5,4
	c5.8,8.9,10.9,11.1,10.9,25.7V416c0,2.3,0.3,4.5,0.8,6.8C266.5,427.1,245.5,427.1,225.2,422.8L225.2,422.8z M306.1,417.4
	c-0.1-0.5-0.1-0.9-0.1-1.4v-39.8c0-11.5-2.5-19-5.6-24.5c30.4-8.2,52-26.3,61.7-52c10.2-27.1,5.6-59.6-11.5-82.1
	c3.1-13.7,3-35.2-4.4-45.1c-3-4.2-7.9-6.7-13.1-6.4c-15.6,0.7-27.7,8.5-40.8,16.4c-11.8-3-23.9-4.6-36.1-4.8h-0.2
	c-12.2,0.2-24.3,1.8-36.1,4.8c-13-7.9-25.1-15.7-40.8-16.4c-5.2-0.2-10.1,2.2-13.1,6.4c-7.4,9.8-7.5,31.3-4.4,45.1
	c-17,22.5-21.7,54.9-11.4,82.1c9.7,25.7,31.3,43.8,61.7,52c-3,5.5-4.8,11.6-5.3,17.8c-12.4,4.3-22.4,1.5-29.2-10
	c-7.9-13.4-21.4-24.2-36.9-22.8c-5.5,0.5-9.6,5.3-9.1,10.8c0.5,5.5,5.3,9.6,10.8,9.1c7.1-0.6,14.2,6.8,17.9,13.1
	c10.7,18,28,24.4,46.1,20.6v25.7c0,0.5,0,1-0.1,1.5c-59.2-21-99.9-78-99.9-141.4c0-82.7,67.3-150,150-150s150,67.3,150,150
	C406,339.4,365.3,396.4,306.1,417.4L306.1,417.4z"/>
<path class="st0" d="M462,0H50C22.4,0,0,22.4,0,50v412c0,27.6,22.4,50,50,50h412c27.6,0,50-22.4,50-50V50C512,22.4,489.6,0,462,0z
	 M492,462c0,16.6-13.4,30-30,30H50c-16.6,0-30-13.4-30-30V50c0-16.6,13.4-30,30-30h412c16.6,0,30,13.4,30,30V462z"/>
<path class="st0" d="M136,63h200c5.5,0,10-4.5,10-10s-4.5-10-10-10H136c-5.5,0-10,4.5-10,10S130.5,63,136,63z"/>
</svg>
