<?xml version="1.0" encoding="utf-8"?>
<!-- Generator: Adobe Illustrator 23.1.1, SVG Export Plug-In . SVG Version: 6.00 Build 0)  -->
<svg version="1.1" id="Layer_1" xmlns="http://www.w3.org/2000/svg" xmlns:xlink="http://www.w3.org/1999/xlink" x="0px" y="0px"
	 viewBox="0 0 512 512" style="enable-background:new 0 0 512 512;" xml:space="preserve">
<style type="text/css">
	.st0{fill:#00AAFF;}
</style>
<title>linkedin</title>
<path class="st0" d="M382,492H30c-5.5,0-10-4.5-10-10V30c0-5.5,4.5-10,10-10h20c5.5,0,10-4.5,10-10S55.5,0,50,0H30
	C13.4,0,0,13.4,0,30v452c0,16.6,13.4,30,30,30l0,0h352c5.5,0,10-4.5,10-10S387.5,492,382,492z"/>
<path class="st0" d="M482,0H130c-5.5,0-10,4.5-10,10s4.5,10,10,10h352c5.5,0,10,4.5,10,10v452c0,5.5-4.5,10-10,10h-20
	c-5.5,0-10,4.5-10,10s4.5,10,10,10h20c16.6,0,30-13.4,30-30l0,0V30C512,13.4,498.6,0,482,0z"/>
<path class="st0" d="M123.2,176.8c29.1,0,52.8-23.6,52.8-52.8s-23.6-52.8-52.8-52.8S70.5,94.9,70.5,124
	C70.5,153.1,94.1,176.7,123.2,176.8z M123.2,91.2c18.1,0,32.8,14.7,32.8,32.8s-14.7,32.8-32.8,32.8S90.5,142.1,90.5,124
	C90.5,105.9,105.2,91.3,123.2,91.2z"/>
<path class="st0" d="M344.2,181.8c-22,0.1-43.3,7.5-60.5,21.2v-6.3c0-5.5-4.5-10-10-10H204c-5.5,0-10,4.5-10,10v234
	c0,5.5,4.5,10,10,10h73.5c5.5,0,10-4.5,10-10v-135c0-16.7,13.5-30.2,30.2-30.2S348,279,348,295.7v135.1c0,5.5,4.5,10,10,10h73.5
	c5.5,0,10-4.5,10-10V279C441.4,225.3,397.9,181.8,344.2,181.8z M421.5,420.8H368V295.7c0-27.8-22.5-50.2-50.2-50.2
	s-50.2,22.5-50.2,50.2v125.1H214v-214h49.8v21c0,5.5,4.5,10,10,10c3.2,0,6.2-1.5,8.1-4.1c25-34.5,73.2-42.3,107.8-17.3
	c20.1,14.5,32,37.8,31.9,62.6V420.8z"/>
<path class="st0" d="M86.5,186.8c-5.5,0-10,4.5-10,10v234c0,5.5,4.5,10,10,10H160c5.5,0,10-4.5,10-10v-234c0-5.5-4.5-10-10-10H86.5z
	 M150,420.8H96.5v-214H150V420.8z"/>
<path class="st0" d="M90,20c5.5,0,10-4.5,10-10S95.5,0,90,0l0,0c-5.5,0-10,4.5-10,10S84.5,20,90,20z"/>
<path class="st0" d="M422,492L422,492c-5.5,0-10,4.5-10,10s4.5,10,10,10s10-4.5,10-10S427.5,492,422,492z"/>
</svg>
