<svg id="Layer_1" data-name="Layer 1" xmlns="http://www.w3.org/2000/svg" viewBox="0 0 512 512"><defs><style>.cls-1{fill:#fff;}</style></defs><title>linkedin</title><path class="cls-1" d="M382,492H30a10,10,0,0,1-10-10V30A10,10,0,0,1,30,20H50A10,10,0,0,0,50,0H30A30,30,0,0,0,0,30V482a30,30,0,0,0,30,30H382a10,10,0,0,0,0-20Z"/><path class="cls-1" d="M482,0H130a10,10,0,0,0,0,20H482a10,10,0,0,1,10,10V482a10,10,0,0,1-10,10H462a10,10,0,0,0,0,20h20a30,30,0,0,0,30-30V30A30,30,0,0,0,482,0Z"/><path class="cls-1" d="M123.25,176.75A52.75,52.75,0,1,0,70.5,124,52.81,52.81,0,0,0,123.25,176.75Zm0-85.5A32.75,32.75,0,1,1,90.5,124,32.79,32.79,0,0,1,123.25,91.25Z"/><path class="cls-1" d="M344.25,181.75A97.39,97.39,0,0,0,283.75,203v-6.27a10,10,0,0,0-10-10H204a10,10,0,0,0-10,10v234a10,10,0,0,0,10,10h73.5a10,10,0,0,0,10-10V295.69a30.25,30.25,0,0,1,60.5,0V430.75a10,10,0,0,0,10,10h73.5a10,10,0,0,0,10-10V279A97.37,97.37,0,0,0,344.25,181.75Zm77.25,239H368V295.69a50.25,50.25,0,0,0-100.5,0V420.75H214v-214h49.75v21a10,10,0,0,0,18.07,5.9A77.17,77.17,0,0,1,421.5,279Z"/><path class="cls-1" d="M86.5,186.75a10,10,0,0,0-10,10v234a10,10,0,0,0,10,10H160a10,10,0,0,0,10-10v-234a10,10,0,0,0-10-10Zm63.5,234H96.5v-214H150Z"/><path class="cls-1" d="M90,20A10,10,0,0,0,90,0h0a10,10,0,0,0,0,20Z"/><path class="cls-1" d="M422,492h0a10,10,0,1,0,10,10A10,10,0,0,0,422,492Z"/></svg>