<?xml version="1.0" encoding="utf-8"?>
<!-- Generator: Adobe Illustrator 23.1.1, SVG Export Plug-In . SVG Version: 6.00 Build 0)  -->
<svg version="1.1" id="Capa_1" xmlns="http://www.w3.org/2000/svg" xmlns:xlink="http://www.w3.org/1999/xlink" x="0px" y="0px"
	 viewBox="0 0 60 60" style="enable-background:new 0 0 60 60;" xml:space="preserve">
<style type="text/css">
	.st0{fill:#FFCC00;}
</style>
<g>
	<path class="st0" d="M51.7,8.3c-0.4-0.4-1-0.4-1.4,0l-42,42c-0.4,0.4-0.4,1,0,1.4C8.5,51.9,8.7,52,9,52s0.5-0.1,0.7-0.3l42-42
		C52.1,9.3,52.1,8.7,51.7,8.3z"/>
	<path class="st0" d="M52.8,10.6L42,21.4v27.5c0,1.7-1.4,3.1-3.1,3.1c-0.5,0-1.1-0.1-1.6-0.4c-0.1,0-0.1-0.1-0.2-0.1l-13-12.1
		L10.6,52.8C16,57.5,22.8,60,30,60c8,0,15.5-3.1,21.2-8.8S60,38,60,30C60,22.8,57.5,16,52.8,10.6z"/>
	<path class="st0" d="M15.1,39c-1.7,0-3.1-1.4-3.1-3.1V23.1c0-1.7,1.4-3.1,3.1-3.1h8.3c0.2,0,0.3,0,0.5-0.1L37.1,7.6
		c0.1-0.1,0.1-0.1,0.2-0.1c0.5-0.3,1-0.4,1.6-0.4c1.7,0,3.1,1.4,3.1,3.1v4.5l7.4-7.4C44,2.5,37.2,0,30,0C22,0,14.5,3.1,8.8,8.8
		S0,22,0,30c0,7.2,2.5,14,7.2,19.4L17.6,39H15.1z"/>
</g>
</svg>
