<?xml version="1.0" encoding="utf-8"?>
<!-- Generator: Adobe Illustrator 23.1.1, SVG Export Plug-In . SVG Version: 6.00 Build 0)  -->
<svg version="1.1" id="Capa_1" xmlns="http://www.w3.org/2000/svg" xmlns:xlink="http://www.w3.org/1999/xlink" x="0px" y="0px"
	 viewBox="0 0 60 60" style="enable-background:new 0 0 60 60;" xml:space="preserve">
<style type="text/css">
	.st0{fill:#FFCC00;}
</style>
<path class="st0" d="M30,0C13.5,0,0,13.5,0,30s13.5,30,30,30s30-13.5,30-30S46.5,0,30,0z M36,48.9c0,1.7-1.4,3.1-3.1,3.1
	c-0.5,0-1.1-0.1-1.6-0.4c-0.1,0-0.1-0.1-0.2-0.1L17.9,39.1C17.8,39,17.6,39,17.4,39H9.1C7.4,39,6,37.6,6,35.9V23.1
	C6,21.4,7.4,20,9.1,20h8.3c0.2,0,0.3,0,0.5-0.1L31.1,7.6c0.1-0.1,0.1-0.1,0.2-0.1c0.5-0.3,1-0.4,1.6-0.4c1.7,0,3.1,1.4,3.1,3.1V48.9
	z M39,39c-0.3,0-0.5-0.1-0.7-0.3c-0.4-0.4-0.4-1,0-1.4c4.3-4.3,4.3-11.3,0-15.6c-0.4-0.4-0.4-1,0-1.4s1-0.4,1.4,0
	c5.1,5.1,5.1,13.3,0,18.4C39.5,38.9,39.3,39,39,39z M42.5,43c-0.3,0-0.5-0.1-0.7-0.3c-0.4-0.4-0.4-1,0-1.4c6.2-6.2,6.2-16.4,0-22.6
	c-0.4-0.4-0.4-1,0-1.4s1-0.4,1.4,0c7,7,7,18.4,0,25.5C43.1,42.9,42.8,43,42.5,43z M46.2,47.7C46,47.9,45.7,48,45.5,48
	s-0.5-0.1-0.7-0.3c-0.4-0.4-0.4-1,0-1.4c4.4-4.4,6.8-10.1,6.8-16.3s-2.4-11.9-6.8-16.3c-0.4-0.4-0.4-1,0-1.4s1-0.4,1.4,0
	c4.7,4.7,7.3,11,7.3,17.7S50.9,43,46.2,47.7z"/>
</svg>
