<svg xmlns="http://www.w3.org/2000/svg" viewBox="0 0 1400 1400"><defs><style>.cls-1{fill:#3150bc;fill-rule:evenodd;}</style></defs><title>starbackground</title><g id="Layer_2" data-name="Layer 2"><rect width="1400" height="1400"/></g><g id="Layer_1" data-name="Layer 1"><path class="cls-1" d="M220.1,822.5a4.9,4.9,0,1,1,0,9.8,4.9,4.9,0,0,1,0-9.8Z"/><path class="cls-1" d="M258.3,430.4a4.9,4.9,0,1,1-4.9,4.9,5,5,0,0,1,4.9-4.9Z"/><path class="cls-1" d="M860.6,916.7a4.9,4.9,0,1,1-4.9,4.9,4.91,4.91,0,0,1,4.9-4.9Z"/><path class="cls-1" d="M1110,173.4a4.9,4.9,0,1,1-4.9,4.9,5,5,0,0,1,4.9-4.9Z"/><path class="cls-1" d="M107.4,54.8a4.9,4.9,0,1,1-4.9,4.9,5,5,0,0,1,4.9-4.9Z"/><path class="cls-1" d="M1228.5,736.4a4.9,4.9,0,1,1-4.9,4.9,5,5,0,0,1,4.9-4.9Z"/><path class="cls-1" d="M779.1,304.3a4.9,4.9,0,1,1-4.9,4.9,4.84,4.84,0,0,1,4.9-4.9Z"/><path class="cls-1" d="M790.8,253.9a2.8,2.8,0,1,1,0,5.6,2.8,2.8,0,1,1,0-5.6Z"/><path class="cls-1" d="M716,295.3a2.86,2.86,0,0,1,2.8,2.8,2.8,2.8,0,1,1-2.8-2.8Z"/><path class="cls-1" d="M822.2,341a5.85,5.85,0,1,1-5.9,5.8,5.8,5.8,0,0,1,5.9-5.8Z"/><path class="cls-1" d="M1058.9,94.4a5.85,5.85,0,1,1-5.9,5.8,5.89,5.89,0,0,1,5.9-5.8Z"/><path class="cls-1" d="M1194.8,151.2a5.85,5.85,0,1,1-5.9,5.8,5.8,5.8,0,0,1,5.9-5.8Z"/><path class="cls-1" d="M600,421.3a5.83,5.83,0,0,1,5.8,5.9,5.85,5.85,0,1,1-11.7,0,6,6,0,0,1,5.9-5.9Z"/><path class="cls-1" d="M294.3,599.1a5.85,5.85,0,1,1-5.8,5.8,5.83,5.83,0,0,1,5.8-5.8Z"/><path class="cls-1" d="M324,883a5.85,5.85,0,1,1-5.9,5.8A5.89,5.89,0,0,1,324,883Z"/><path class="cls-1" d="M84.3,768.7a5.85,5.85,0,1,1-5.9,5.9,6,6,0,0,1,5.9-5.9Z"/><path class="cls-1" d="M303.3,166.1a2.6,2.6,0,1,1-2.6,2.6,2.65,2.65,0,0,1,2.6-2.6Z"/><path class="cls-1" d="M122.1,104.9a2.6,2.6,0,1,1-2.6,2.6,2.65,2.65,0,0,1,2.6-2.6Z"/><path class="cls-1" d="M104.8,376.6a2.6,2.6,0,1,1-2.6,2.6,2.65,2.65,0,0,1,2.6-2.6Z"/><path class="cls-1" d="M427.8,602.4a2.55,2.55,0,1,1-2.6,2.6,2.58,2.58,0,0,1,2.6-2.6Z"/><path class="cls-1" d="M368.5,625.7a2.55,2.55,0,1,1-2.6,2.6,2.58,2.58,0,0,1,2.6-2.6Z"/><path class="cls-1" d="M574,175.3a2.55,2.55,0,0,1,0,5.1,2.55,2.55,0,1,1,0-5.1Z"/><path class="cls-1" d="M1146.9,723.5a2.6,2.6,0,0,1,0,5.2,2.65,2.65,0,0,1-2.6-2.6,2.72,2.72,0,0,1,2.6-2.6Z"/><path class="cls-1" d="M1267.9,977.9a2.6,2.6,0,1,1-2.6,2.6,2.65,2.65,0,0,1,2.6-2.6Z"/><path class="cls-1" d="M895,977.8a2.6,2.6,0,1,1-2.6,2.6,2.72,2.72,0,0,1,2.6-2.6Z"/><path class="cls-1" d="M517.8,749.5a2.6,2.6,0,0,1,0,5.2,2.6,2.6,0,1,1,0-5.2Z"/><path class="cls-1" d="M814.1,581.5a2.6,2.6,0,1,1-2.6,2.6,2.65,2.65,0,0,1,2.6-2.6Z"/><path class="cls-1" d="M1215.4,545.7a2.65,2.65,0,0,1,2.6,2.6,2.55,2.55,0,1,1-2.6-2.6Z"/><path class="cls-1" d="M207.9,439.5a2.6,2.6,0,1,1-2.6,2.6,2.65,2.65,0,0,1,2.6-2.6Z"/><path class="cls-1" d="M120.2,615a1.3,1.3,0,1,1-1.3,1.3,1.32,1.32,0,0,1,1.3-1.3Z"/><path class="cls-1" d="M173.8,268.3a1.3,1.3,0,1,1-1.3,1.3,1.26,1.26,0,0,1,1.3-1.3Z"/><path class="cls-1" d="M465.2,294.2a1.3,1.3,0,1,1-1.3,1.3,1.4,1.4,0,0,1,1.3-1.3Z"/><path class="cls-1" d="M872.5,92.1a1.3,1.3,0,1,1-1.3,1.3,1.4,1.4,0,0,1,1.3-1.3Z"/><path class="cls-1" d="M818.3,293a1.3,1.3,0,1,1-1.3,1.3,1.32,1.32,0,0,1,1.3-1.3Z"/><path class="cls-1" d="M870.2,318.9a1.3,1.3,0,1,1-1.3,1.3,1.32,1.32,0,0,1,1.3-1.3Z"/><path class="cls-1" d="M833.1,422.6a1.3,1.3,0,1,1-1.3,1.3,1.32,1.32,0,0,1,1.3-1.3Z"/><path class="cls-1" d="M916.4,624.6a1.3,1.3,0,1,1-1.3,1.3,1.32,1.32,0,0,1,1.3-1.3Z"/><path class="cls-1" d="M914.8,477a1.3,1.3,0,1,1-1.3,1.3,1.32,1.32,0,0,1,1.3-1.3Z"/><path class="cls-1" d="M960.3,438a1.3,1.3,0,1,1-1.3,1.3,1.32,1.32,0,0,1,1.3-1.3Z"/><path class="cls-1" d="M902.5,419.3a1.3,1.3,0,1,1-1.3,1.3,1.32,1.32,0,0,1,1.3-1.3Z"/><path class="cls-1" d="M903.8,295.8a1.3,1.3,0,1,1-1.3,1.3,1.32,1.32,0,0,1,1.3-1.3Z"/><path class="cls-1" d="M849.5,224.9a1.3,1.3,0,1,1-1.3,1.3,1.32,1.32,0,0,1,1.3-1.3Z"/><path class="cls-1" d="M847.3,153.6a1.3,1.3,0,1,1-1.3,1.3,1.32,1.32,0,0,1,1.3-1.3Z"/><path class="cls-1" d="M819.1,82.5a1.3,1.3,0,1,1-1.3,1.3,1.32,1.32,0,0,1,1.3-1.3Z"/><path class="cls-1" d="M1196.1,226.3a1.3,1.3,0,1,1-1.3,1.3,1.32,1.32,0,0,1,1.3-1.3Z"/><path class="cls-1" d="M1266.5,118.9a1.3,1.3,0,1,1-1.3,1.3,1.32,1.32,0,0,1,1.3-1.3Z"/><path class="cls-1" d="M1364.1,185.6a1.3,1.3,0,1,1-1.3,1.3,1.26,1.26,0,0,1,1.3-1.3Z"/><path class="cls-1" d="M1004.7,299.2a1.3,1.3,0,1,1-1.3,1.3,1.32,1.32,0,0,1,1.3-1.3Z"/><path class="cls-1" d="M1047,733.8a4.05,4.05,0,1,1-4,4.1,4,4,0,0,1,4-4.1Z"/><path class="cls-1" d="M1228.3,706a4,4,0,0,1,4,4,4.05,4.05,0,1,1-8.1,0,4,4,0,0,1,4.1-4Z"/><path class="cls-1" d="M1308.5,806a4,4,0,0,1,0,8,4,4,0,1,1,0-8Z"/><path class="cls-1" d="M910.9,950.5a4,4,0,0,1,4,4,4.1,4.1,0,0,1-4,4.1,4.05,4.05,0,0,1,0-8.1Z"/><path class="cls-1" d="M544.2,965.3a4.05,4.05,0,0,1,0,8.1,4.1,4.1,0,0,1-4.1-4,4.18,4.18,0,0,1,4.1-4.1Z"/><path class="cls-1" d="M170.1,918.4a4.1,4.1,0,0,1,4.1,4,4.05,4.05,0,1,1-4.1-4Z"/><path class="cls-1" d="M82.5,955.4a4.05,4.05,0,1,1-4,4.1,4.1,4.1,0,0,1,4-4.1Z"/><path class="cls-1" d="M238,643a4,4,0,0,1,0,8,4,4,0,1,1,0-8Z"/><path class="cls-1" d="M191.1,181.2a4,4,0,1,1-4,4,4,4,0,0,1,4-4Z"/><path class="cls-1" d="M249.4,80.4a4.05,4.05,0,1,1-4,4.1,4.1,4.1,0,0,1,4-4.1Z"/><path class="cls-1" d="M1220.8,945.2a4,4,0,1,1-4,4,4,4,0,0,1,4-4Z"/><path class="cls-1" d="M682.5,540.2a4.05,4.05,0,0,1,0,8.1,4.05,4.05,0,1,1,0-8.1Z"/><path class="cls-1" d="M625.7,520.5a4,4,0,1,1-4,4,4,4,0,0,1,4-4Z"/><path class="cls-1" d="M692.8,364.9a2,2,0,1,1-2,2,2,2,0,0,1,2-2Z"/><path class="cls-1" d="M684.9,256.4a2,2,0,1,1-2,2,2.07,2.07,0,0,1,2-2Z"/><path class="cls-1" d="M501,358.9a2,2,0,1,1-2,2,2,2,0,0,1,2-2Z"/><path class="cls-1" d="M230.6,286.1a2,2,0,1,1-2,2,2,2,0,0,1,2-2Z"/><path class="cls-1" d="M61.4,345.3a2,2,0,1,1-2,2,2,2,0,0,1,2-2Z"/><path class="cls-1" d="M118.2,420.6a2,2,0,1,1-2,2,2,2,0,0,1,2-2Z"/><path class="cls-1" d="M833.1,86a2,2,0,1,1-2,2,2,2,0,0,1,2-2Z"/><path class="cls-1" d="M1290,408.3a2,2,0,1,1-2,2,2,2,0,0,1,2-2Z"/><path class="cls-1" d="M935.6,698.5a2,2,0,1,1-2,2,1.94,1.94,0,0,1,2-2Z"/><path class="cls-1" d="M485.6,88.5a5.2,5.2,0,1,1-5.2,5.2,5.23,5.23,0,0,1,5.2-5.2Z"/><path class="cls-1" d="M290.8,485.2a5.2,5.2,0,1,1-5.2,5.2,5.23,5.23,0,0,1,5.2-5.2Z"/><path class="cls-1" d="M1134.1,396.6a5.2,5.2,0,1,1-5.2,5.2,5.14,5.14,0,0,1,5.2-5.2Z"/><path class="cls-1" d="M813,681.8a5.2,5.2,0,1,1-5.1,5.2,5.16,5.16,0,0,1,5.1-5.2Z"/><path class="cls-1" d="M1103.2,1052a5.2,5.2,0,0,1,0,10.4,5.16,5.16,0,0,1-5.2-5.2,5.29,5.29,0,0,1,5.2-5.2Z"/><path class="cls-1" d="M1279.8,579a5.2,5.2,0,1,1-5.1,5.2,5.08,5.08,0,0,1,5.1-5.2Z"/><path class="cls-1" d="M443.4,766.4a3.48,3.48,0,0,1,3.5,3.5,3.42,3.42,0,0,1-3.5,3.5,3.54,3.54,0,0,1-3.5-3.5,3.48,3.48,0,0,1,3.5-3.5Z"/><path class="cls-1" d="M226.7,550.2a3.54,3.54,0,0,1,3.5,3.5,3.5,3.5,0,0,1-7,0,3.54,3.54,0,0,1,3.5-3.5Z"/><path class="cls-1" d="M89.7,658.8a3.5,3.5,0,1,1-3.5,3.5,3.48,3.48,0,0,1,3.5-3.5Z"/><path class="cls-1" d="M182.3,783.5a3.5,3.5,0,0,1,0,7,3.48,3.48,0,0,1-3.5-3.5,3.42,3.42,0,0,1,3.5-3.5Z"/><path class="cls-1" d="M202,845.3a3.48,3.48,0,0,1,3.5,3.5,3.5,3.5,0,1,1-3.5-3.5Z"/><path class="cls-1" d="M166.2,883.6a3.5,3.5,0,0,1,0,7,3.54,3.54,0,0,1-3.5-3.5,3.48,3.48,0,0,1,3.5-3.5Z"/><path class="cls-1" d="M1176.2,239.1a3.5,3.5,0,0,1,0,7,3.54,3.54,0,0,1-3.5-3.5,3.48,3.48,0,0,1,3.5-3.5Z"/><path class="cls-1" d="M1154,34.1a3.5,3.5,0,0,1,0,7,3.5,3.5,0,0,1,0-7Z"/><path class="cls-1" d="M1304.6,152.6a3.48,3.48,0,0,1,3.5,3.5,3.5,3.5,0,1,1-3.5-3.5Z"/><path class="cls-1" d="M332.3,510.4a6,6,0,1,1-6,6,6,6,0,0,1,6-6Z"/><path class="cls-1" d="M251.6,140.2a6,6,0,1,1-6,6,6,6,0,0,1,6-6Z"/><path class="cls-1" d="M466.4,58.7a6,6,0,1,1-6,6,6,6,0,0,1,6-6Z"/><path class="cls-1" d="M1180.1,794.6a6,6,0,1,1-6,6,6,6,0,0,1,6-6Z"/><path class="cls-1" d="M982.5,999.6a6,6,0,1,1-6,6,6,6,0,0,1,6-6Z"/><path class="cls-1" d="M1360.3,1090.9a6,6,0,1,1-6,6,6,6,0,0,1,6-6Z"/><path class="cls-1" d="M115.7,1007a6,6,0,1,1-6,6,6,6,0,0,1,6-6Z"/><path class="cls-1" d="M26.8,646.4a6,6,0,1,1-6,6,6,6,0,0,1,6-6Z"/><path class="cls-1" d="M194.3,363.5a3.08,3.08,0,0,1,3,3,3,3,0,0,1-3,3,3,3,0,1,1,0-6Z"/><path class="cls-1" d="M75.5,80.4a3.08,3.08,0,0,1,3,3,3,3,0,0,1-3,3,3,3,0,0,1,0-6Z"/><path class="cls-1" d="M1043.1,391.7a3,3,0,0,1,3,3,3,3,0,0,1-3,3,3,3,0,0,1-3-3,3.08,3.08,0,0,1,3-3Z"/><path class="cls-1" d="M775.5,780.4a3.08,3.08,0,0,1,3,3,3,3,0,0,1-3,3,3,3,0,0,1-3-3,3,3,0,0,1,3-3Z"/><path class="cls-1" d="M618.3,1011.5a3,3,0,0,1,3,3,3,3,0,0,1-3,3,3,3,0,0,1,0-6Z"/><path class="cls-1" d="M346.7,779.4a3,3,0,0,1,3,3,3,3,0,0,1-3,3,3,3,0,1,1,0-6Z"/><path class="cls-1" d="M751.7,107.7a3,3,0,0,1,3,3,3,3,0,0,1-3,3,3,3,0,0,1,0-6Z"/><path class="cls-1" d="M1131.5,774.4a3.08,3.08,0,0,1,3,3,3,3,0,0,1-3,3,3,3,0,0,1-3-3,3,3,0,0,1,3-3Z"/><path class="cls-1" d="M641.8,945.2a4.9,4.9,0,1,1-4.9,4.9,5,5,0,0,1,4.9-4.9Z"/><path class="cls-1" d="M677.8,1113.9a5.85,5.85,0,1,1-5.8,5.8,5.83,5.83,0,0,1,5.8-5.8Z"/><path class="cls-1" d="M674.3,1000a5.2,5.2,0,1,1-5.2,5.2,5.23,5.23,0,0,1,5.2-5.2Z"/><path class="cls-1" d="M610.2,1065a3.54,3.54,0,0,1,3.5,3.5,3.5,3.5,0,0,1-7,0,3.54,3.54,0,0,1,3.5-3.5Z"/><path class="cls-1" d="M697.4,688.1a2.86,2.86,0,0,1,2.8-2.8,2.8,2.8,0,1,1-2.8,2.8Z"/><path class="cls-1" d="M767,711.3a2,2,0,1,1,2,2,2,2,0,0,1-2-2Z"/><path class="cls-1" d="M658.5,719.2a2,2,0,1,1,2,2,2.07,2.07,0,0,1-2-2Z"/><path class="cls-1" d="M624.9,1372.1a2,2,0,1,1,2,2,2.07,2.07,0,0,1-2-2Z"/><path class="cls-1" d="M311.7,1124.6a5.85,5.85,0,1,1-5.8-5.9,5.8,5.8,0,0,1,5.8,5.9Z"/><path class="cls-1" d="M558.3,1361.3a5.85,5.85,0,1,1-5.8-5.9,5.89,5.89,0,0,1,5.8,5.9Z"/><path class="cls-1" d="M71.2,1116.5a2.6,2.6,0,1,1-2.6-2.6,2.65,2.65,0,0,1,2.6,2.6Z"/><path class="cls-1" d="M521.5,1173.8a1.3,1.3,0,1,1-1.3-1.3,1.4,1.4,0,0,1,1.3,1.3Z"/><path class="cls-1" d="M359.7,1120.7a1.3,1.3,0,1,1-1.3-1.3,1.32,1.32,0,0,1,1.3,1.3Z"/><path class="cls-1" d="M333.8,1172.6a1.3,1.3,0,1,1-1.3-1.3,1.32,1.32,0,0,1,1.3,1.3Z"/><path class="cls-1" d="M230.1,1135.5a1.3,1.3,0,1,1-1.3-1.3,1.32,1.32,0,0,1,1.3,1.3Z"/><path class="cls-1" d="M157,1184.9a1.3,1.3,0,1,1-1.3-1.3,1.32,1.32,0,0,1,1.3,1.3Z"/><path class="cls-1" d="M234.1,1257.7a1.3,1.3,0,1,1-1.3-1.3,1.32,1.32,0,0,1,1.3,1.3Z"/><path class="cls-1" d="M230.8,1201.3a1.3,1.3,0,1,1-1.3-1.3,1.32,1.32,0,0,1,1.3,1.3Z"/><path class="cls-1" d="M356.9,1206.2a1.3,1.3,0,1,1-1.3-1.3,1.32,1.32,0,0,1,1.3,1.3Z"/><path class="cls-1" d="M570.2,1121.5a1.3,1.3,0,1,1-1.3-1.3,1.32,1.32,0,0,1,1.3,1.3Z"/><path class="cls-1" d="M353.5,1307.1a1.3,1.3,0,1,1-1.3-1.3,1.32,1.32,0,0,1,1.3,1.3Z"/><path class="cls-1" d="M566.7,1135.5a2,2,0,1,1-2-2,2,2,0,0,1,2,2Z"/><path class="cls-1" d="M261,1345.5a3,3,0,0,1-3,3,3,3,0,0,1-3-3,3,3,0,0,1,3-3,3.08,3.08,0,0,1,3,3Z"/><path class="cls-1" d="M1075.7,506.3a5.2,5.2,0,1,1-5.2,5.2,5.14,5.14,0,0,1,5.2-5.2Z"/><path class="cls-1" d="M300.9,1212.2a2.65,2.65,0,0,1,2.6,2.6,2.55,2.55,0,1,1-2.6-2.6Z"/><path class="cls-1" d="M769.2,885.2a4.9,4.9,0,1,1,4.9,4.9,5,5,0,0,1-4.9-4.9Z"/><path class="cls-1" d="M900.1,1216.1a4.9,4.9,0,1,1,4.9,4.9,4.84,4.84,0,0,1-4.9-4.9Z"/><path class="cls-1" d="M849.7,1204.4a2.8,2.8,0,1,1,5.6,0,2.8,2.8,0,0,1-5.6,0Z"/><path class="cls-1" d="M891.1,1279.2a2.86,2.86,0,0,1,2.8-2.8,2.8,2.8,0,1,1-2.8,2.8Z"/><path class="cls-1" d="M936.8,1173a5.85,5.85,0,1,1,5.8,5.9,5.8,5.8,0,0,1-5.8-5.9Z"/><path class="cls-1" d="M1177.3,1181.1a2.6,2.6,0,1,1,2.6,2.6,2.65,2.65,0,0,1-2.6-2.6Z"/><path class="cls-1" d="M888.8,1176.9a1.3,1.3,0,1,1,1.3,1.3,1.32,1.32,0,0,1-1.3-1.3Z"/><path class="cls-1" d="M914.7,1125a1.3,1.3,0,1,1,1.3,1.3,1.32,1.32,0,0,1-1.3-1.3Z"/><path class="cls-1" d="M1018.4,1162.1a1.3,1.3,0,1,1,1.3,1.3,1.32,1.32,0,0,1-1.3-1.3Z"/><path class="cls-1" d="M1220.4,1078.8a1.3,1.3,0,1,1,1.3,1.3,1.32,1.32,0,0,1-1.3-1.3Z"/><path class="cls-1" d="M1072.9,1080.5a1.3,1.3,0,1,1,1.3,1.3,1.32,1.32,0,0,1-1.3-1.3Z"/><path class="cls-1" d="M1033.8,1034.9a1.3,1.3,0,1,1,1.3,1.3,1.32,1.32,0,0,1-1.3-1.3Z"/><path class="cls-1" d="M1015.1,1092.7a1.3,1.3,0,1,1,1.3,1.3,1.32,1.32,0,0,1-1.3-1.3Z"/><path class="cls-1" d="M891.6,1091.4a1.3,1.3,0,1,1,1.3,1.3,1.32,1.32,0,0,1-1.3-1.3Z"/><path class="cls-1" d="M820.8,1145.7a1.3,1.3,0,1,1,1.3,1.3,1.32,1.32,0,0,1-1.3-1.3Z"/><path class="cls-1" d="M749.4,1147.9a1.3,1.3,0,1,1,1.3,1.3,1.32,1.32,0,0,1-1.3-1.3Z"/><path class="cls-1" d="M895,990.5a1.3,1.3,0,1,1,1.3,1.3,1.32,1.32,0,0,1-1.3-1.3Z"/><path class="cls-1" d="M1329.6,948.2a4.05,4.05,0,1,1,4.1,4,4,4,0,0,1-4.1-4Z"/><path class="cls-1" d="M1136,1312.7a4.05,4.05,0,0,1,8.1,0,4.05,4.05,0,1,1-8.1,0Z"/><path class="cls-1" d="M1116.3,1369.5a4,4,0,1,1,4,4,4,4,0,0,1-4-4Z"/><path class="cls-1" d="M960.7,1302.4a2,2,0,1,1,2,2,2,2,0,0,1-2-2Z"/><path class="cls-1" d="M852.2,1310.3a2,2,0,1,1,2,2,2.07,2.07,0,0,1-2-2Z"/><path class="cls-1" d="M1294.3,1059.6a2,2,0,1,1,2,2,1.94,1.94,0,0,1-2-2Z"/><path class="cls-1" d="M992.4,861.1a5.2,5.2,0,1,1,5.2,5.2,5.14,5.14,0,0,1-5.2-5.2Z"/><path class="cls-1" d="M1277.6,1182.2a5.2,5.2,0,1,1,5.2,5.1,5.16,5.16,0,0,1-5.2-5.1Z"/><path class="cls-1" d="M987.5,952.1a3,3,0,0,1,3-3,3,3,0,0,1,3,3,3,3,0,0,1-3,3,3.08,3.08,0,0,1-3-3Z"/><path class="cls-1" d="M703.5,1243.5a3,3,0,0,1,3-3,3,3,0,0,1,3,3,3,3,0,0,1-6,0Z"/><path class="cls-1" d="M1284,1297.8a2.86,2.86,0,0,1-2.8-2.8,2.8,2.8,0,1,1,2.8,2.8Z"/><path class="cls-1" d="M1307.2,1228.2a2,2,0,1,1,2-2,2,2,0,0,1-2,2Z"/><path class="cls-1" d="M1315.1,1336.7a2,2,0,1,1,2-2,2.07,2.07,0,0,1-2,2Z"/><path class="cls-1" d="M1293.9,1280.4a5.2,5.2,0,1,1,5.2,5.2,5.14,5.14,0,0,1-5.2-5.2Z"/><path class="cls-1" d="M854.4,734.4a4.89,4.89,0,1,1-6.9.4,4.9,4.9,0,0,1,6.9-.4Z"/><path class="cls-1" d="M520.1,612.4a4.89,4.89,0,1,1-6.9.4,4.81,4.81,0,0,1,6.9-.4Z"/><path class="cls-1" d="M562.3,582.5a2.83,2.83,0,0,1-3.8,4.2,2.83,2.83,0,1,1,3.8-4.2Z"/><path class="cls-1" d="M478.9,563.7a2.93,2.93,0,0,1,.2,4,2.75,2.75,0,0,1-4,.2,2.84,2.84,0,0,1-.2-4,2.94,2.94,0,0,1,4-.2Z"/><path class="cls-1" d="M527.9,668.4a5.88,5.88,0,1,1-8.3.5,5.83,5.83,0,0,1,8.3-.5Z"/><path class="cls-1" d="M362.1,842.8a2.62,2.62,0,1,1-3.5,3.9,2.66,2.66,0,0,1-.2-3.7,2.77,2.77,0,0,1,3.7-.2Z"/><path class="cls-1" d="M556.9,630a1.27,1.27,0,1,1-1.8.1,1.27,1.27,0,0,1,1.8-.1Z"/><path class="cls-1" d="M578.5,683.8a1.27,1.27,0,1,1-1.8.1,1.27,1.27,0,0,1,1.8-.1Z"/><path class="cls-1" d="M481.9,736.7a1.27,1.27,0,1,1-1.8.1,1.27,1.27,0,0,1,1.8-.1Z"/><path class="cls-1" d="M409.9,943a1.27,1.27,0,1,1-1.8.1,1.27,1.27,0,0,1,1.8-.1Z"/><path class="cls-1" d="M506.7,831.6a1.27,1.27,0,1,1-1.8.1,1.27,1.27,0,0,1,1.8-.1Z"/><path class="cls-1" d="M535.9,780.3a1.27,1.27,0,1,1-1.8.1,1.27,1.27,0,0,1,1.8-.1Z"/><path class="cls-1" d="M374.5,107.2a2.6,2.6,0,0,1,0,5.2,2.6,2.6,0,0,1,0-5.2Z"/><path class="cls-1" d="M338.6,94.4a1.27,1.27,0,1,1-1.8.1,1.27,1.27,0,0,1,1.8-.1Z"/><path class="cls-1" d="M363.5,189.3a1.27,1.27,0,1,1-1.8.1,1.37,1.37,0,0,1,1.8-.1Z"/><path class="cls-1" d="M392.7,138a1.27,1.27,0,1,1-1.8.1,1.37,1.37,0,0,1,1.8-.1Z"/><path class="cls-1" d="M619,688.9a1.27,1.27,0,1,1-1.8.1,1.18,1.18,0,0,1,1.8-.1Z"/><path class="cls-1" d="M625.5,599.8a1.27,1.27,0,1,1-1.8.1,1.36,1.36,0,0,1,1.8-.1Z"/><path class="cls-1" d="M671.2,545.1a1.27,1.27,0,1,1-1.8.1,1.19,1.19,0,0,1,1.8-.1Z"/><path class="cls-1" d="M692.1,758.4a1.27,1.27,0,1,1-1.8.1,1.38,1.38,0,0,1,1.8-.1Z"/><path class="cls-1" d="M435,1111.4a4.08,4.08,0,0,1,.3,5.7,4,4,0,1,1-5.9-5.3,3.88,3.88,0,0,1,5.6-.4Z"/><path class="cls-1" d="M291.2,724.5a4.08,4.08,0,0,1,.3,5.7,4,4,0,0,1-5.6.3,4,4,0,1,1,5.3-6Z"/><path class="cls-1" d="M415.3,600.3a2,2,0,1,1-2.8.2,2,2,0,0,1,2.8-.2Z"/><path class="cls-1" d="M481.5,514a2,2,0,1,1-2.8.2,2,2,0,0,1,2.8-.2Z"/><path class="cls-1" d="M375.2,1011a2,2,0,1,1-2.8.2,1.94,1.94,0,0,1,2.8-.2Z"/><path class="cls-1" d="M294.7,917.1a5.17,5.17,0,1,1-6.9,7.7,5.19,5.19,0,0,1-.4-7.3,5.11,5.11,0,0,1,7.3-.4Z"/><path class="cls-1" d="M659.4,853.1a2.9,2.9,0,0,1,.2,4.2,2.82,2.82,0,0,1-4.2.2,2.9,2.9,0,0,1-.2-4.2,3,3,0,0,1,4.2-.2Z"/><path class="cls-1" d="M630.2,447.2a2.9,2.9,0,0,1,.2,4.2,2.82,2.82,0,0,1-4.2.2,2.9,2.9,0,0,1-.2-4.2,3.08,3.08,0,0,1,4.2-.2Z"/><path class="cls-1" d="M240.7,908.6a2,2,0,1,1,.2,2.8,1.86,1.86,0,0,1-.2-2.8Z"/><path class="cls-1" d="M154.3,842.4a2,2,0,1,1,.2,2.8,2,2,0,0,1-.2-2.8Z"/><path class="cls-1" d="M684.5,669.5A3.48,3.48,0,0,1,688,673a3.42,3.42,0,0,1-3.5,3.5A3.54,3.54,0,0,1,681,673a3.48,3.48,0,0,1,3.5-3.5Z"/><path class="cls-1" d="M747.9,734.7a1.27,1.27,0,1,1-1.8.1,1.27,1.27,0,0,1,1.8-.1Z"/><path class="cls-1" d="M458.1,459.5a2,2,0,1,1-2,2,2,2,0,0,1,2-2Z"/><path class="cls-1" d="M265.6,350.1a2,2,0,1,1-2,2,2,2,0,0,1,2-2Z"/><path class="cls-1" d="M350.6,377.3a1.3,1.3,0,1,1-1.3,1.3,1.4,1.4,0,0,1,1.3-1.3Z"/></g></svg>